<svg width="40" height="31" viewBox="0 0 40 31" fill="none" xmlns="http://www.w3.org/2000/svg">
<path d="M9.8 24.432C7.928 24.432 6.284 23.964 4.868 23.028C3.452 22.092 2.348 20.724 1.556 18.924C0.764 17.1 0.368 14.844 0.368 12.156C0.368 9.54 0.764 7.344 1.556 5.568C2.348 3.768 3.452 2.412 4.868 1.5C6.284 0.563999 7.928 0.0959988 9.8 0.0959988C11.672 0.0959988 13.316 0.563999 14.732 1.5C16.148 2.412 17.252 3.768 18.044 5.568C18.836 7.344 19.232 9.54 19.232 12.156C19.232 14.844 18.836 17.1 18.044 18.924C17.252 20.724 16.148 22.092 14.732 23.028C13.316 23.964 11.672 24.432 9.8 24.432ZM9.8 20.112C10.616 20.112 11.324 19.824 11.924 19.248C12.524 18.672 12.98 17.808 13.292 16.656C13.628 15.48 13.796 13.98 13.796 12.156C13.796 10.524 13.628 9.156 13.292 8.052C12.98 6.948 12.524 6.108 11.924 5.532C11.324 4.956 10.616 4.668 9.8 4.668C8.984 4.668 8.276 4.956 7.676 5.532C7.076 6.108 6.608 6.948 6.272 8.052C5.96 9.156 5.804 10.524 5.804 12.156C5.804 13.98 5.96 15.48 6.272 16.656C6.608 17.808 7.076 18.672 7.676 19.248C8.276 19.824 8.984 20.112 9.8 20.112ZM16.532 30.408C14.204 30.408 12.248 29.796 10.664 28.572C9.104 27.348 7.964 25.776 7.244 23.856L12.608 23.316C12.848 24.036 13.196 24.6 13.652 25.008C14.132 25.44 14.672 25.74 15.272 25.908C15.896 26.076 16.532 26.16 17.18 26.16C17.54 26.16 17.876 26.112 18.188 26.016C18.524 25.92 18.812 25.812 19.052 25.692L19.988 29.652C19.604 29.868 19.124 30.048 18.548 30.192C17.972 30.336 17.3 30.408 16.532 30.408ZM31.7819 24L34.6619 0.599999H37.6859L34.8419 24H31.7819ZM24.9779 24L27.8579 0.599999H30.8819L28.0379 24H24.9779ZM23.8259 9.924V6.54H39.8099V9.924H23.8259ZM23.1059 17.268V13.884H39.0899V17.268H23.1059Z" fill="black"/>
</svg>
